<?xml version="1.0" encoding="UTF-8"?>
<svg id="Calque_1" data-name="Calque 1" xmlns="http://www.w3.org/2000/svg" viewBox="0 0 1162.43 330.26">
  <defs>
    <style>
      .cls-1 {
        fill: #fff;
      }
    </style>
  </defs>
  <g>
    <path class="cls-1" d="M489.35,60.12v204.06c0,4.23-2.12,8.19-5.64,10.54l-76.21,50.86v-101.02l-134.4-8.44V60.12c0-7,5.67-12.67,12.67-12.67h69.19v153.03l52.54,2.38V47.46h69.18c7,0,12.67,5.67,12.67,12.67Z"/>
    <path class="cls-1" d="M826.26,191c-4.94,39.87-38.95,70.71-80.12,70.71h-104.18l-37.46-80.21h127.39c6.99,0,12.67-5.67,12.67-12.67v-29.54c0-6.99-5.67-12.67-12.67-12.67h-127.39v198.96l-89.01-54.88V60.12c0-7,5.67-12.67,12.67-12.67h150.57c4.84,0,9.53,1.87,13.05,5.19l128.72,122.26c4.37,4.15,6.52,10.13,5.76,16.09Z"/>
    <path class="cls-1" d="M920.96,59.17v202.54h-69.18c-7,0-12.67-5.24-12.67-11.71V47.46h69.18c7,0,12.67,5.24,12.67,11.71Z"/>
    <path class="cls-1" d="M1155.3,60.12v67.54l-75.55,54.88h75.55v66.25c0,6.99-5.67,12.67-12.67,12.67h-50.91c-3.25,0-6.38-1.25-8.73-3.49l-73.18-69.62,16.41,15.61v57.76h-69.2c-6.99,0-12.67-5.67-12.67-12.67v-38.99l64.48-22.63-64.47-61.33V60.12c0-7,5.67-12.67,12.67-12.67h69.19v135.09h45.61V47.46h70.8c7,0,12.67,5.67,12.67,12.67h0Z"/>
    <path class="cls-1" d="M87.29,55.04v270.53l76.21-50.86c3.52-2.35,5.64-6.3,5.64-10.54V126.62h55.63c5.78,0,10.96-3.58,12.99-9l26.38-70.17h-95v-30.04c0-7-5.67-12.67-12.67-12.67h-69.18v38.6"/>
  </g>
  <path class="cls-1" d="M3.25,47.46l25.16,79.16h58.88l-27.16-72.26c-1.56-4.15-5.53-6.9-9.97-6.9H3.25"/>
</svg>