<?xml version="1.0" encoding="UTF-8"?>
<svg id="Calque_1" data-name="Calque 1" xmlns="http://www.w3.org/2000/svg" viewBox="0 0 493.57 333.91">
  <defs>
    <style>
      .cls-1 {
        fill: #fff;
      }
    </style>
  </defs>
  <g>
    <path class="cls-1" d="M489.07,63.23v67.54l-75.55,54.88h75.55v66.25c0,6.99-5.67,12.67-12.67,12.67h-50.91c-3.25,0-6.38-1.25-8.73-3.49l-73.18-69.62,16.41,15.61v57.76h-69.2c-6.99,0-12.67-5.67-12.67-12.67v-38.99l64.48-22.63-64.47-61.33V63.23c0-7,5.67-12.67,12.67-12.67h69.19v135.09h45.61V50.56h70.8c7,0,12.67,5.67,12.67,12.67h0Z"/>
    <path class="cls-1" d="M90.19,58.15v270.53l76.21-50.86c3.52-2.35,5.64-6.3,5.64-10.54v-137.56h55.63c5.78,0,10.96-3.58,12.99-9l26.38-70.17h-95v-30.04c0-7-5.67-12.67-12.67-12.67h-69.18v38.6"/>
  </g>
  <path class="cls-1" d="M6.15,50.56l25.16,79.16h58.88l-27.16-72.26c-1.56-4.15-5.53-6.9-9.97-6.9H6.15"/>
</svg>